<svg xmlns="http://www.w3.org/2000/svg" xmlns:xlink="http://www.w3.org/1999/xlink" preserveAspectRatio="none" width="440" height="85">
	<defs>
		<linearGradient id="a" gradientUnits="userSpaceOnUse" x1="13.475" y1="59.45" x2="-8.775" y2="33.75">
			<stop offset="0%" stop-color="#66C" stop-opacity="0" />
			<stop offset="100%" stop-color="#66C" />
		</linearGradient>
		<g id="b">
			<path fill="url(#a)" d="M11.2 11.25H0v72.7l11.2-9.6v-63.1z" />
			<path fill="#66C" d="M11.2 9.6h8.5q34.7-.25 34.95 32.3-.1 18.9-11.4 26.8-8.15 5.75-22.6 5.65H11.2L0 83.95h20.65Q29.6 84 36.7 82.3q8.6-2 14.35-6.4 7-5.45 11.15-14.3 4.25-9.2 4.05-19.55-1.3-43.15-47.1-42H0v11.2h11.2V9.6m92.65 12.65q-12.45 0-20.3 8.35-7.8 8.35-7.8 23.55 0 14.6 7.75 22.75 7.7 8.1 20.9 8.1 10.5 0 17.25-5.1 6.7-5.1 9.2-14.3l-10.5-1.3q-2.35 6.45-6.3 9.4-4 2.95-9.6 2.95-7.5 0-12.55-5.3-5.05-5.25-5.6-15.1h44.85q.05-1.85.05-2.75 0-14.9-7.65-23.05-7.65-8.2-19.7-8.2m16.6 25.6h-33.6q.5-7.9 5.3-12.6 4.8-4.65 11.8-4.65 7.75 0 12.65 5.85 3.15 3.8 3.85 11.4m54.45-23.3q-4.25-2.3-9.7-2.3-7.4 0-13.45 3.9-6 3.9-9 11.2-3 7.3-3 16.35 0 9.15 3.35 16.3 3.3 7.1 9.35 11.05 6 3.95 13.2 3.95 11.1 0 16.8-8.95v7.6h9.5V.75H181.8V30.5q-2.65-3.7-6.9-5.95m-8.75 6.15q7 0 11.75 5.7 4.75 5.8 4.75 18.15 0 11.15-4.65 16.65-4.7 5.45-11.4 5.45-6.6 0-11.5-5.75-4.85-5.7-4.85-17.2 0-11.95 4.6-17.5 4.5-5.5 11.3-5.5M207.8.75v11.7H218V.75h-10.2M218 23.6h-10.2v60.05H218V23.6m63.65 17.6q-1.75-9.1-7.95-14-6.25-4.95-16.05-4.95-7.75 0-14.35 3.65t-9.85 10.9q-3.2 7.3-3.2 17.05 0 15 7.5 23.1Q245.25 85 257.6 85q9.85 0 16.65-5.8 6.75-5.9 8.35-16.3l-10-1.3q-1.1 7.65-5.1 11.35-4 3.7-10 3.7-7.5 0-12.15-5.5t-4.65-17.6q0-11.95 4.8-17.45 4.85-5.5 12.55-5.5 5.1 0 8.7 3.05 3.6 3.05 5 9.1l9.9-1.55m45.2-7.1q2.9 2.55 2.9 8.75 0 .6-.05 2.65-5.85 2.05-18.2 3.55-6.05.7-9.05 1.5-4.05 1.15-7.3 3.35-3.3 2.2-5.25 5.85-2.05 3.6-2.05 8.05 0 7.5 5.3 12.4Q298.5 85 308.4 85q6 0 11.25-1.95 5.25-2 10.9-6.8.45 4.25 2.05 7.4h10.65q-1.95-3.45-2.55-7.2-.7-3.8-.7-17.95V44.9q0-6.8-.5-9.4-.9-4.2-3.15-6.85-2.3-2.8-7.1-4.6-4.8-1.8-12.5-1.8-7.8 0-13.65 2.15-5.9 2.1-9.05 6.05-3.1 3.85-4.45 10.25l9.95 1.35q1.65-6.4 5.1-8.85 3.4-2.5 10.6-2.5 7.7 0 11.6 3.4m2.85 23.15q0 6.7-1.65 10.15-2.15 4.45-6.75 7.05Q316.75 77 310.85 77q-5.95 0-9-2.7-3.15-2.7-3.15-6.8 0-2.65 1.45-4.8 1.4-2.2 4-3.35 2.6-1.1 8.9-2 11.1-1.55 16.65-3.85v3.75m37.9-33.65v-21l-10.15 6.1v14.9H350v7.9h7.45v34.55q0 9.15 1.25 12.05 1.25 2.85 4.3 4.6 3.1 1.75 8.65 1.75 3.35 0 7.7-.9l-1.5-9q-2.75.4-4.45.4-2.3 0-3.45-.75-1.25-.75-1.8-2t-.55-5.6V31.5h10.25v-7.9H367.6m64.75 6.85q-7.65-8.2-19.7-8.2-12.45 0-20.3 8.35-7.8 8.35-7.8 23.55 0 14.6 7.75 22.75Q400 85 413.2 85q10.5 0 17.25-5.1 6.7-5.1 9.2-14.3l-10.5-1.3q-2.35 6.45-6.3 9.4-4 2.95-9.6 2.95-7.5 0-12.55-5.3-5.05-5.25-5.6-15.1h44.85q.05-1.85.05-2.75 0-14.9-7.65-23.05m-19.6.15q7.75 0 12.65 5.85 3.15 3.8 3.85 11.4h-33.6q.5-7.9 5.3-12.6 4.8-4.65 11.8-4.65z" />
		</g>
	</defs>
	<use xlink:href="#b" />
</svg>
