
<svg xmlns="http://www.w3.org/2000/svg" version="1.1" xmlns:xlink="http://www.w3.org/1999/xlink" preserveAspectRatio="none" x="0px" y="0px" width="64px" height="64px" viewBox="0 0 64 64">
<defs>
<g id="Layer1_0_FILL">
<path fill="#FFFFFF" stroke="none" d="
M 41 3
L 41 0 23 0 23 3 30 3 30 9.05
Q 20.03984375 9.7146484375 12.85 16.95 5 24.85 5 36 5 47.25 12.85 55.1 20.75 63 32 63 43.2 63 51.1 55.1 59 47.25 59 36 59 24.85 51.1 16.95 43.9150390625 9.71953125 34 9.05
L 34 3 41 3
M 48.3 19.8
Q 55 26.5 55 36 55 45.6 48.3 52.3 41.55 59 32 59 22.45 59 15.7 52.3 9 45.6 9 36 9 26.5 15.7 19.8 21.85 13.6 30.3 13.1 31.15 13 32 13 32.85 13 33.7 13.1 42.15 13.6 48.3 19.8
M 35 36
Q 35 34.75 34.15 33.9 33.35 33.05 32.25 33 32.15 33 32 33 31.9 33 31.8 33 30.7 33.05 29.9 33.9 29 34.75 29 36 29 37.25 29.9 38.1 30.8 39 32 39 33.25 39 34.15 38.1 35 37.25 35 36 Z"/>
</g>

<g id="Layer0_0_FILL">
<path fill="#FFFFFF" stroke="none" d="
M 49.15 46.3
L 50.1 44.5 37.8 37.9 36.85 39.65 49.15 46.3
M 31 30
L 33 30 33 20 31 20 31 30 Z"/>
</g>
</defs>

<g transform="matrix( 1, 0, 0, 1, 0,0) ">
<use xlink:href="#Layer1_0_FILL"/>
</g>

<g transform="matrix( 1, 0, 0, 1, 0,0) ">
<use xlink:href="#Layer0_0_FILL"/>
</g>
</svg>
