<svg xmlns="http://www.w3.org/2000/svg" xmlns:xlink="http://www.w3.org/1999/xlink" preserveAspectRatio="none" width="64" height="64">
	<defs>
		<path fill="#FFF" d="M54.6 9.3q-1.522-1.508-3.2-2.8l-1-.8L44.35 9q-2.262-1.223-4.7-1.95L37.7.4 36.4.25Q34.227.005 32 0q-2.228.005-4.35.25l-1.3.15-1.95 6.65q-2.416.722-4.65 1.9l-6.1-3.3-1 .8Q10.934 7.727 9.3 9.3q-1.573 1.634-2.85 3.35l-.8 1 3.3 6.15q-1.184 2.206-1.9 4.65L.4 26.4l-.15 1.3Q.004 29.77 0 32q.005 2.28.25 4.4l.15 1.3 6.7 1.95q.716 2.433 1.9 4.65l-3.3 6.1.8 1q1.292 1.678 2.8 3.2 1.684 1.672 3.45 3l1 .75 6.1-3.25q2.203 1.15 4.6 1.85l1.95 6.6 1.3.15q2.07.296 4.3.3 2.28-.005 4.4-.3l1.25-.15 2.05-6.65q2.322-.71 4.5-1.9l6.15 3.35 1.05-.85q1.639-1.306 3.2-2.9 1.594-1.561 2.9-3.2l.85-1.05L55 44.2q1.187-2.161 1.9-4.5l6.65-2.05.15-1.25q.295-2.12.3-4.4-.004-2.23-.3-4.3l-.15-1.3-6.6-1.95q-.707-2.416-1.9-4.6l3.3-6.1-.75-1q-1.328-1.766-3-3.45M43.25 13l1 .6 5.7-3.1q.942.783 1.8 1.65 1.011 1.003 1.85 2l-3.1 5.8.55.95q1.571 2.62 2.3 5.6l.3 1.15 6.25 1.85q.103 1.221.1 2.5.003 1.34-.1 2.6l-6.25 1.9-.3 1.05q-.76 2.975-2.35 5.65l-.55.95 3.1 5.75q-.835.946-1.8 1.85-.896.956-1.85 1.8l-5.75-3.1-.95.55q-2.675 1.59-5.65 2.35l-1.05.3-1.9 6.25q-1.255.103-2.6.1-1.283.003-2.5-.1l-1.85-6.25-1.15-.3q-2.98-.728-5.6-2.3l-.95-.55-5.8 3.1q-1.005-.847-2-1.85-.867-.858-1.65-1.8l3.1-5.7-.6-1q-1.57-2.666-2.3-5.7l-.3-1.1-6.3-1.85Q3.997 33.333 4 32q-.003-1.279.1-2.5l6.25-1.85.3-1.15q.718-3.03 2.3-5.7l.6-.95-3.1-5.8q.799-.956 1.7-1.9.952-.91 1.9-1.75l5.8 3.15.95-.6q2.668-1.582 5.65-2.3l1.15-.3 1.85-6.25Q30.701 3.996 32 4q1.31-.004 2.6.1l1.85 6.25 1.1.3q3.021.72 5.7 2.35M41.9 41.9q4.102-4.063 4.1-9.9.002-5.837-4.1-9.95Q37.837 17.997 32 18q-5.837-.003-9.95 4.05Q17.997 26.163 18 32q-.003 5.837 4.05 9.9Q26.163 46.002 32 46q5.837.002 9.9-4.1m-2.85-2.85Q36.163 41.997 32 42q-4.163-.003-7.1-2.95Q22.002 36.163 22 32q.002-4.163 2.9-7.1 2.937-2.898 7.1-2.9 4.163.002 7.05 2.9Q41.997 27.837 42 32q-.003 4.163-2.95 7.05z" id="a" />
	</defs>
	<use xlink:href="#a" />
</svg>
