<svg xmlns="http://www.w3.org/2000/svg" xmlns:xlink="http://www.w3.org/1999/xlink" preserveAspectRatio="none" width="64" height="64">
	<defs>
		<path fill="#000222" d="M56 9.5h-2.5V7h-43v2.5H7V60h49V9.5z" id="a" />
		<path fill="#FFF" d="M53.7 7.05H52v7.2q0 1.55-1.5 2.65Q49.1 18 47 18t-3.6-1.1Q42 15.8 42 14.25V7H22v7.25q0 1.55-1.5 2.65Q19.1 18 17 18t-3.6-1.1Q12 15.8 12 14.25v-7.2H9.9q-2.06.063-3.4.85-1.13.654-1.75 1.8Q4 11.135 4 13.3v44.4Q4 64 10.25 64H53.7q6.3 0 6.3-6.3V13.3q0-3.937-2.5-5.4-1.468-.85-3.8-.85m-45 52.8Q8 59.5 8 58.5V22h48v36.55q-.005.249-.05.45-.11.517-.5.8-.35.2-.95.2h-45q-.5 0-.8-.15M18 32v8h8v-8h-8M17 0q-1.25 0-2.15.85Q14 1.75 14 3v10q0 1.25.85 2.1.9.9 2.15.9t2.1-.9q.9-.85.9-2.1V3q0-1.25-.9-2.15Q18.25 0 17 0m30 0q-1.25 0-2.15.85Q44 1.75 44 3v10q0 1.25.85 2.1.9.9 2.15.9t2.1-.9q.9-.85.9-2.1V3q0-1.25-.9-2.15Q48.25 0 47 0z" id="b" />
		<path fill="#FFF" fill-opacity=".247" d="M48 22h-2v8h-8v-8h-2v8h-8v-8h-2v8h-8v-8h-2v8H8v2h8v8H8v2h8v8H8v2h8v8h2v-8h8v8h2v-8h8v8h2v-8h8v8h2v-8h8v-2h-8v-8h8v-2h-8v-8h8v-2h-8v-8m-2 10v8h-8v-8h8m-28 8v-8h8v8h-8m10 2h8v8h-8v-8m8-2h-8v-8h8v8m-18 2h8v8h-8v-8m28 8h-8v-8h8v8z" id="c" />
	</defs>
	<use xlink:href="#a" />
	<use xlink:href="#b" />
	<use xlink:href="#c" />
</svg>
