
<svg xmlns="http://www.w3.org/2000/svg" version="1.1" xmlns:xlink="http://www.w3.org/1999/xlink" preserveAspectRatio="none" x="0px" y="0px" width="512px" height="512px" viewBox="0 0 512 512">
<defs>
<linearGradient id="Gradient_1" gradientUnits="userSpaceOnUse" x1="139.8" y1="490.925" x2="25.6" y2="350.575" spreadMethod="pad">
<stop  offset="0%" stop-color="#6666CC" stop-opacity="0"/>

<stop  offset="100%" stop-color="#6666CC"/>
</linearGradient>

<g id="Layer0_0_FILL">
<path fill="url(#Gradient_1)" stroke="none" d="
M 121.7 243.6
L 53.7 243.6 53.7 512 121.7 453.65 121.7 243.6 Z"/>

<path fill="#6666CC" stroke="none" d="
M 457.15 256.65
L 457.05 256.65
Q 449.3 -6.75 170.15 0.2
L 53.7 0.2 53.7 243.6 121.7 243.6 121.7 58.6 173.55 58.6
Q 384.65 57.05 386.3 255.6
L 386.25 255.6
Q 385.5 371.1 316.95 419.2 267.1 454.15 179.25 453.65
L 121.7 453.65 53.7 512 179.25 512
Q 233.75 512.15 277 502.05 329.45 489.9 364.3 462.9 406.95 429.95 432.05 376.05 458.3 319.55 457.15 256.65 Z"/>
</g>
</defs>

<g transform="matrix( 1, 0, 0, 1, 0,0) ">
<use xlink:href="#Layer0_0_FILL"/>
</g>
</svg>
