
<svg xmlns="http://www.w3.org/2000/svg" version="1.1" xmlns:xlink="http://www.w3.org/1999/xlink" preserveAspectRatio="none" x="0px" y="0px" width="64px" height="64px" viewBox="0 0 64 64">
<defs>
<g id="Layer0_0_FILL">
<path fill="#6666CC" stroke="none" d="
M 64 32
Q 64 18.7 54.55 9.35 45.2 0 32 0 18.7 0 9.35 9.35 0 18.7 0 32 0 45.2 9.35 54.55 18.7 64 32 64 45.2 64 54.55 54.55 64 45.2 64 32
M 51.8 12.2
Q 59.95 20.4 59.95 32 59.95 43.6 51.8 51.8 43.6 59.95 32 59.95 20.4 59.95 12.2 51.8 3.95 43.6 3.95 32 3.95 20.4 12.2 12.2 20.4 3.95 32 3.95 43.6 3.95 51.8 12.2
M 55 32.45
Q 55 32.25 55 32 55 22.45 48.25 15.7 41.55 9 32 9 22.45 9 15.7 15.7 9 22.45 9 32 9 32.25 9 32.45 9.2 41.7 15.7 48.25 22.45 55 32 55 41.55 55 48.25 48.25 54.8 41.7 55 32.45
M 46.2 27.8
L 46.2 29.7
Q 45.05 28.95 43.6 28.95 41.7 28.95 40.6 30.2 39.4 31.4 39.4 33.4 39.4 35.3 40.45 36.5 41.6 37.6 43.35 37.6 45.05 37.6 46.2 36.85
L 46.2 38.65
Q 44.9 39.3 42.95 39.3 40.4 39.3 38.85 37.7 37.4 36.1 37.4 33.55 37.4 30.75 39.1 29.05 40.8 27.3 43.45 27.3 45.1 27.3 46.2 27.8
M 19.2 39.1
L 19.2 27.5 23.05 27.5
Q 23.9 27.5 24.55 27.65 25.25 27.9 25.7 28.25 26.25 28.7 26.55 29.25 26.85 29.85 26.85 30.65 26.85 31.25 26.65 31.75 26.5 32.3 26.15 32.65 25.75 33.05 25.3 33.35 24.85 33.65 24.25 33.75
L 24.25 33.85
Q 24.6 34 24.85 34.25 25.05 34.4 25.25 34.65 25.5 34.9 25.65 35.2 25.9 35.45 26.15 35.85
L 28.2 39.1 25.95 39.1 24.05 36
Q 23.8 35.55 23.6 35.25 23.35 34.95 23.1 34.8 22.85 34.55 22.55 34.5 22.3 34.35 21.9 34.35
L 21.15 34.35 21.15 39.1 19.2 39.1
M 35.45 34.05
L 31.45 34.05 31.45 37.5 36 37.5 36 39.1 29.5 39.1 29.5 27.5 35.8 27.5 35.8 29.15 31.45 29.15 31.45 32.4 35.45 32.4 35.45 34.05
M 22.75 29.05
L 21.15 29.05 21.15 32.8 22.75 32.8
Q 23.15 32.8 23.6 32.7 23.95 32.55 24.25 32.3 24.45 32.05 24.65 31.65 24.75 31.3 24.75 30.8 24.75 30 24.3 29.5 23.75 29.05 22.75 29.05 Z"/>
</g>
</defs>

<g transform="matrix( 1, 0, 0, 1, 0,0) ">
<use xlink:href="#Layer0_0_FILL"/>
</g>
</svg>
