
<svg xmlns="http://www.w3.org/2000/svg" version="1.1" xmlns:xlink="http://www.w3.org/1999/xlink" preserveAspectRatio="none" x="0px" y="0px" width="64px" height="64px" viewBox="0 0 64 64">
<defs>
<g id="Layer1_0_FILL">
<path fill="#6666CC" stroke="none" d="
M 64 32
Q 64 18.75 54.6 9.35 45.25 0 32 0 18.75 0 9.35 9.35 0 18.75 0 32 0 45.25 9.35 54.6 18.75 64 32 64 45.25 64 54.6 54.6 64 45.25 64 32
M 51.8 12.2
Q 60 20.4 60 32 60 43.6 51.8 51.8 43.6 60 32 60 20.4 60 12.2 51.8 4 43.6 4 32 4 20.4 12.2 12.2 20.4 4 32 4 43.6 4 51.8 12.2
M 55 32.5
Q 55 32.251171875 55 32 55 22.45 48.25 15.7 41.55 9 32 9 22.45 9 15.7 15.7 9 22.45 9 32 9 32.251171875 9 32.5 9.176171875 41.726171875 15.7 48.25 22.45 55 32 55 41.55 55 48.25 48.25 54.8224609375 41.726171875 55 32.5
M 40.75 27.5
Q 41.3 27.5 41.7 27.55 42.1 27.6 42.5 27.75 42.8 27.8 43.15 27.95 43.5 28.1 43.7 28.25
L 43.7 30.3 43.5 30.3
Q 43.35 30.15 43.1 30 42.85 29.8 42.55 29.6 42.25 29.4 41.9 29.3 41.5 29.15 41.1 29.15 40.65 29.15 40.25 29.3 39.85 29.45 39.5 29.8 39.15 30.15 38.95 30.7 38.75 31.3 38.75 32.05 38.75 32.85 38.95 33.4 39.2 33.95 39.55 34.3 39.9 34.65 40.3 34.8 40.7 34.95 41.15 34.95 41.55 34.95 41.95 34.8 42.35 34.65 42.6 34.45 42.9 34.3 43.15 34.1 43.35 33.9 43.5 33.75
L 43.7 33.75 43.7 35.8
Q 43.5 35.95 43.15 36.1 42.85 36.2 42.5 36.3 42.1 36.45 41.75 36.5 41.4 36.55 40.75 36.55 38.8 36.55 37.65 35.4 36.5 34.2 36.5 32.05 36.5 29.95 37.65 28.75 38.8 27.5 40.75 27.5
M 35.5 27.7
L 35.5 29.35 31.8 29.35 31.8 30.85 35.2 30.85 35.2 32.55 31.8 32.55 31.8 34.75 35.5 34.75 35.5 36.4 29.6 36.4 29.6 27.7 35.5 27.7
M 27.4 28.9
Q 27.7 29.35 27.7 30.05 27.7 31.05 27.25 31.7 26.8 32.3 26.05 32.7
L 28.95 36.4 26.3 36.4 23.85 33.2 23.1 33.2 23.1 36.4 20.9 36.4 20.9 27.7 24.4 27.7
Q 25.15 27.7 25.7 27.75 26.2 27.85 26.65 28.15 27.15 28.45 27.4 28.9
M 23.8 29.3
L 23.1 29.3 23.1 31.65 23.7 31.65
Q 24.15 31.65 24.5 31.6 24.8 31.5 25.05 31.35 25.25 31.15 25.35 30.95 25.45 30.7 25.45 30.35 25.45 30 25.3 29.8 25.2 29.55 24.9 29.4 24.7 29.35 24.45 29.3 24.2 29.3 23.8 29.3 Z"/>
</g>
</defs>

<g transform="matrix( 1, 0, 0, 1, 0,0) ">
<use xlink:href="#Layer1_0_FILL"/>
</g>
</svg>
