
<svg xmlns="http://www.w3.org/2000/svg" version="1.1" xmlns:xlink="http://www.w3.org/1999/xlink" preserveAspectRatio="none" x="0px" y="0px" width="64px" height="64px" viewBox="0 0 64 64">
<defs>
<g id="Layer1_0_FILL">
<path fill="#FFFFFF" stroke="none" d="
M 41 3
L 41 0 23 0 23 3 30 3 30 9.05
Q 20.03984375 9.7146484375 12.85 16.95 5 24.85 5 36 5 47.25 12.85 55.1 20.75 63 32 63 43.2 63 51.1 55.1 59 47.25 59 36 59 24.85 51.1 16.95 43.9150390625 9.71953125 34 9.05
L 34 3 41 3
M 48.3 19.8
Q 55 26.5 55 36 55 45.6 48.3 52.3 41.55 59 32 59 22.45 59 15.7 52.3 9 45.6 9 36 9 26.5 15.7 19.8 21.85 13.6 30.3 13.1 31.15 13 32 13 32.85 13 33.7 13.1 42.15 13.6 48.3 19.8
M 44.35 54.25
L 45.15 53.65 44.55 52.85 43.75 53.45 44.35 54.25
M 42.45 55.45
L 41.95 54.55 41.1 55 41.55 55.85 42.45 55.45
M 46.9 52.3
L 47.6 51.6 45.5 49.5 44.8 50.2 46.9 52.3
M 18.95 53.85
L 19.55 53 18.75 52.45 18.15 53.3 18.95 53.85
M 28.7 57.75
L 28.85 56.75 27.85 56.6 27.7 57.6 28.7 57.75
M 24.85 55.8
L 24.55 56.75 25.5 57.05 25.8 56.1 24.85 55.8
M 21.75 54.4
L 21.35 55.3 22.25 55.75 22.65 54.85 21.75 54.4
M 39.2 56.8
L 38.85 55.85 37.9 56.2 38.25 57.15 39.2 56.8
M 35.35 56.75
L 34.35 57 34.55 58 35.5 57.8 35.35 56.75
M 32.05 55
L 31.05 55 31.05 58 32.05 58 32.05 55
M 35 36
Q 35 34.75 34.15 33.9 33.35 33.05 32.25 33 32.15 33 32 33 31.9 33 31.8 33 30.7 33.05 29.9 33.9 29 34.75 29 36 29 37.25 29.9 38.1 30.8 39 32 39 33.25 39 34.15 38.1 35 37.25 35 36
M 18.45 49.45
L 17.75 48.75 15.65 50.85 16.35 51.55 18.45 49.45
M 12.5 46.4
L 13.4 45.9 12.95 45.05 12.1 45.5 12.5 46.4
M 14.3 49.1
L 15.1 48.5 14.5 47.7 13.7 48.3 14.3 49.1
M 11.2 39.3
L 10.95 38.3 9.95 38.5 10.15 39.45 11.2 39.3
M 10.8 42.2
L 11.15 43.15 12.1 42.8 11.75 41.85 10.8 42.2
M 10.15 32.6
L 11.15 32.75 11.3 31.75 10.3 31.6 10.15 32.6
M 12.95 36
L 12.95 35 9.95 35 9.95 36 12.95 36
M 12.15 26.15
L 13.05 26.55 13.5 25.65 12.6 25.25 12.15 26.15
M 10.85 29.4
L 11.8 29.7 12.1 28.75 11.15 28.45 10.85 29.4
M 16.35 20.25
L 18.45 22.35 19.15 21.65 17.05 19.55 16.35 20.25
M 14.05 22.85
L 14.9 23.45 15.45 22.65 14.6 22.05 14.05 22.85
M 20.2 18.4
L 19.6 17.6 18.8 18.2 19.4 19 20.2 18.4
M 31.9 13.85
L 31.9 16.85 32.9 16.85 32.9 13.85 31.9 13.85
M 36.05 15.4
L 36.2 14.4 35.2 14.25 35.05 15.25 36.05 15.4
M 39.35 15.25
L 38.4 14.95 38.1 15.9 39.05 16.2 39.35 15.25
M 21.5 16.4
L 22 17.3 22.85 16.85 22.4 16 21.5 16.4
M 26.05 15.65
L 25.7 14.7 24.75 15.05 25.1 16 26.05 15.65
M 28.6 15.1
L 29.6 14.85 29.4 13.85 28.45 14.05 28.6 15.1
M 51.8 45.7
L 50.9 45.3 50.45 46.2 51.35 46.6 51.8 45.7
M 52.15 42.15
L 51.85 43.1 52.8 43.4 53.1 42.45 52.15 42.15
M 53.65 40.25
L 53.8 39.25 52.8 39.1 52.65 40.1 53.65 40.25
M 49.9 49
L 49.05 48.4 48.5 49.2 49.35 49.8 49.9 49
M 53.75 32.55
L 52.7 32.7 52.95 33.65 53.95 33.45 53.75 32.55
M 53.95 35.95
L 50.95 35.95 50.95 36.95 53.95 36.95 53.95 35.95
M 52.75 28.85
L 51.8 29.2 52.15 30.15 53.1 29.8 52.75 28.85
M 50.95 26.95
L 51.8 26.5 51.4 25.6 50.5 26.1 50.95 26.95
M 49.6 22.9
L 48.8 23.5 49.4 24.3 50.2 23.7 49.6 22.9
M 46.15 23.25
L 48.25 21.15 47.55 20.45 45.45 22.55 46.15 23.25
M 44.35 19
L 45.15 19.55 45.75 18.7 44.95 18.15 44.35 19
M 42.55 16.7
L 41.65 16.25 41.25 17.15 42.15 17.6 42.55 16.7 Z"/>
</g>

<g id="Layer0_0_FILL">
<path fill="#FFFFFF" stroke="none" d="
M 33 30
L 33 20 31 20 31 30 33 30
M 49.15 46.3
L 50.1 44.5 37.8 37.9 36.85 39.65 49.15 46.3 Z"/>
</g>
</defs>

<g transform="matrix( 1, 0, 0, 1, 0,0) ">
<use xlink:href="#Layer1_0_FILL"/>
</g>

<g transform="matrix( 1, 0, 0, 1, 0,0) ">
<use xlink:href="#Layer0_0_FILL"/>
</g>
</svg>
