
<svg xmlns="http://www.w3.org/2000/svg" version="1.1" xmlns:xlink="http://www.w3.org/1999/xlink" preserveAspectRatio="none" x="0px" y="0px" width="64px" height="64px" viewBox="0 0 64 64">
<defs>
<g id="Layer0_0_FILL">
<path fill="#6666CC" stroke="none" d="
M 64 32
Q 64 18.75 54.6 9.35 45.25 0 32 0 18.75 0 9.35 9.35 0 18.75 0 32 0 45.25 9.35 54.6 18.75 64 32 64 45.25 64 54.6 54.6 64 45.25 64 32
M 51.8 12.2
Q 60 20.4 60 32 60 43.6 51.8 51.8 43.6 60 32 60 20.4 60 12.2 51.8 4 43.6 4 32 4 20.4 12.2 12.2 20.4 4 32 4 43.6 4 51.8 12.2
M 55 32.5
Q 55 32.251171875 55 32 55 22.45 48.25 15.7 41.55 9 32 9 22.45 9 15.7 15.7 9 22.45 9 32 9 32.251171875 9 32.5 9.176171875 41.726171875 15.7 48.25 22.45 55 32 55 41.55 55 48.25 48.25 54.8224609375 41.726171875 55 32.5 Z"/>
</g>
</defs>

<g transform="matrix( 1, 0, 0, 1, 0,0) ">
<use xlink:href="#Layer0_0_FILL"/>
</g>
</svg>
