
<svg xmlns="http://www.w3.org/2000/svg" version="1.1" xmlns:xlink="http://www.w3.org/1999/xlink" preserveAspectRatio="none" x="0px" y="0px" width="512px" height="512px" viewBox="0 0 512 512">
<defs>
<g id="Layer0_0_FILL">
<path fill="#FFFFFF" stroke="none" d="
M 6.75 198.65
Q 6.4 199.1 5.85 201.5 5.3 203.9 5.1 204.5
L 18.1 204.9 6.75 198.65
M 2 226
Q 1.7 226.45 1.45 228.95 1.15 231.4 1 232
L 14 231 2 226
M 22.45 151.5
Q 22.05 151.85 21.1 154.15 20.05 156.4 19.7 156.95
L 32.4 159.85 22.45 151.5
M 13.65 174.2
Q 13.25 174.6 12.45 177 11.7 179.35 11.45 179.9
L 24.35 181.6 13.65 174.2
M 38.05 121.7
Q 36.75 123.9 35.45 126 34.2 128.2 32.95 130.35
L 76.8 150.4 38.05 121.7
M 60.75 110.85
L 52.95 100.4
Q 52.5 100.65 51 102.7 49.5 104.65 49.05 105.05
L 60.75 110.85
M 71.05 79.35
Q 70.5 79.55 68.85 81.35 67.1 83.1 66.65 83.5
L 77.6 90.5 71.05 79.35
M 94.9 73.7
L 89.5 61.8
Q 88.95 61.95 87 63.65 85.15 65.3 84.7 65.6
L 94.9 73.7
M 108.7 46.8
Q 108.15 46.85 106.1 48.4 104.05 49.75 103.5 50.05
L 112.95 59.05 108.7 46.8
M 134.4 30.75
Q 132.25 31.9 130.05 33.1 127.9 34.35 125.7 35.65
L 153.7 74.9 134.4 30.75
M 160.35 32.3
L 158.9 19.4
Q 158.4 19.35 156.05 20.3 153.75 21.25 153.2 21.4
L 160.35 32.3
M 185.15 10.25
Q 184.55 10.15 182.2 10.85 179.8 11.55 179.25 11.65
L 185.2 23.2 185.15 10.25
M 234 1.1
Q 233.55 0.85 231.05 1.15 228.6 1.35 227.95 1.35
L 231.55 13.85 234 1.1
M 209.85 4.4
Q 209.3 4.25 206.8 4.75 204.4 5.2 203.8 5.25
L 208.6 17.35 209.85 4.4
M 256 48
L 261 0.05
Q 258.5 0 256 0 253.5 0 251 0.05
L 256 48
M 73.7 417.1
L 61.8 422.5
Q 61.95 423.05 63.65 425 65.3 426.85 65.6 427.3
L 73.7 417.1
M 46.8 403.3
Q 46.85 403.85 48.4 405.9 49.75 407.95 50.05 408.5
L 59.05 399.05 46.8 403.3
M 121.7 473.95
Q 123.9 475.25 126 476.55 128.2 477.8 130.35 479.05
L 150.4 435.2 121.7 473.95
M 151.5 489.55
Q 151.85 489.95 154.15 490.9 156.4 491.95 156.95 492.3
L 159.85 479.6 151.5 489.55
M 110.85 451.25
L 100.4 459.05
Q 100.65 459.5 102.7 461 104.65 462.5 105.05 462.95
L 110.85 451.25
M 83.5 445.35
L 90.5 434.4 79.35 440.95
Q 79.55 441.5 81.35 443.15 83.1 444.9 83.5 445.35
M 174.2 498.35
Q 174.6 498.75 177 499.55 179.35 500.3 179.9 500.55
L 181.6 487.65 174.2 498.35
M 198.65 505.25
Q 199.1 505.6 201.5 506.15 203.9 506.7 204.5 506.9
L 204.9 493.9 198.65 505.25
M 226 510
Q 226.45 510.3 228.95 510.55 231.4 510.85 232 511
L 231 498 226 510
M 30.75 377.6
Q 31.9 379.75 33.1 381.95 34.35 384.1 35.65 386.3
L 74.9 358.3 30.75 377.6
M 32.3 351.65
L 19.4 353.1
Q 19.35 353.6 20.3 355.95 21.25 358.25 21.4 358.8
L 32.3 351.65
M 10.25 326.85
Q 10.15 327.45 10.85 329.8 11.55 332.2 11.65 332.75
L 23.2 326.8 10.25 326.85
M 4.4 302.15
Q 4.25 302.7 4.75 305.2 5.2 307.6 5.25 308.2
L 17.35 303.4 4.4 302.15
M 1.1 278
Q 0.85 278.45 1.15 280.95 1.35 283.4 1.35 284.05
L 13.85 280.45 1.1 278
M 0.05 251
Q 0 253.5 0 256 0 258.5 0.05 261
L 48 256 0.05 251
M 326.85 501.75
Q 327.45 501.85 329.8 501.15 332.2 500.45 332.75 500.35
L 326.8 488.8 326.85 501.75
M 377.6 481.25
Q 379.75 480.1 381.95 478.9 384.1 477.65 386.3 476.35
L 358.3 437.1 377.6 481.25
M 351.65 479.7
L 353.1 492.6
Q 353.6 492.65 355.95 491.7 358.25 490.75 358.8 490.6
L 351.65 479.7
M 422.5 450.2
Q 423.05 450.05 425 448.35 426.85 446.7 427.3 446.4
L 417.1 438.3 422.5 450.2
M 405.9 463.6
Q 407.95 462.25 408.5 461.95
L 399.05 452.95 403.3 465.2
Q 403.85 465.15 405.9 463.6
M 440.95 432.65
Q 441.5 432.45 443.15 430.65 444.9 428.9 445.35 428.5
L 434.4 421.5 440.95 432.65
M 451.25 401.15
L 459.05 411.6
Q 459.5 411.35 461 409.3 462.5 407.35 462.95 406.95
L 451.25 401.15
M 278 510.9
Q 278.45 511.15 280.95 510.85 283.4 510.65 284.05 510.65
L 280.45 498.15 278 510.9
M 251 511.95
Q 253.5 512 256 512 258.5 512 261 511.95
L 256 464 251 511.95
M 302.15 507.6
Q 302.7 507.75 305.2 507.25 307.6 506.8 308.2 506.75
L 303.4 494.65 302.15 507.6
M 489.55 360.5
Q 489.95 360.15 490.9 357.85 491.95 355.6 492.3 355.05
L 479.6 352.15 489.55 360.5
M 498.35 337.8
Q 498.75 337.4 499.55 335 500.3 332.65 500.55 332.1
L 487.65 330.4 498.35 337.8
M 505.25 313.35
Q 505.6 312.9 506.15 310.5 506.7 308.1 506.9 307.5
L 493.9 307.1 505.25 313.35
M 510 286
Q 510.3 285.55 510.55 283.05 510.85 280.6 511 280
L 498 281 510 286
M 473.95 390.3
Q 475.25 388.1 476.55 386 477.8 383.8 479.05 381.65
L 435.2 361.6 473.95 390.3
M 510.9 234
Q 511.15 233.55 510.85 231.05 510.65 228.6 510.65 227.95
L 498.15 231.55 510.9 234
M 507.6 209.85
Q 507.75 209.3 507.25 206.8 506.8 204.4 506.75 203.8
L 494.65 208.6 507.6 209.85
M 501.75 185.15
Q 501.85 184.55 501.15 182.2 500.45 179.8 500.35 179.25
L 488.8 185.2 501.75 185.15
M 492.6 158.9
Q 492.65 158.4 491.7 156.05 490.75 153.75 490.6 153.2
L 479.7 160.35 492.6 158.9
M 465.2 108.7
Q 465.15 108.15 463.6 106.1 462.25 104.05 461.95 103.5
L 452.95 112.95 465.2 108.7
M 450.2 89.5
Q 450.05 88.95 448.35 87 446.7 85.15 446.4 84.7
L 438.3 94.9 450.2 89.5
M 432.65 71.05
Q 432.45 70.5 430.65 68.85 428.9 67.1 428.5 66.65
L 421.5 77.6 432.65 71.05
M 411.6 52.95
Q 411.35 52.5 409.3 51 407.35 49.5 406.95 49.05
L 401.15 60.75 411.6 52.95
M 360.5 22.45
Q 360.15 22.05 357.85 21.1 355.6 20.05 355.05 19.7
L 352.15 32.4 360.5 22.45
M 280 1
L 281 14 286 2
Q 285.55 1.7 283.05 1.45 280.6 1.15 280 1
M 313.35 6.75
Q 312.9 6.4 310.5 5.85 308.1 5.3 307.5 5.1
L 307.1 18.1 313.35 6.75
M 337.8 13.65
Q 337.4 13.25 335 12.45 332.65 11.7 332.1 11.45
L 330.4 24.35 337.8 13.65
M 386 35.45
Q 383.8 34.2 381.65 32.95
L 361.6 76.8 390.3 38.05
Q 388.1 36.75 386 35.45
M 478.9 130.05
Q 477.65 127.9 476.35 125.7
L 437.1 153.7 481.25 134.4
Q 480.1 132.25 478.9 130.05
M 511.95 261
Q 512 258.5 512 256 512 253.5 511.95 251
L 464 256 511.95 261 Z"/>
</g>
</defs>

<g transform="matrix( 1, 0, 0, 1, 0,0) ">
<use xlink:href="#Layer0_0_FILL"/>
</g>
</svg>
