<svg xmlns="http://www.w3.org/2000/svg" xmlns:xlink="http://www.w3.org/1999/xlink" preserveAspectRatio="none" width="64" height="64">
	<defs>
		<path fill="#FFF" d="M49 19.6q0-6.6-6.6-6.6H19.6Q13 13 13 19.6v22.8q0 6.6 6.6 6.6h22.8q6.6 0 6.6-6.6V19.6m-4.05 22.8q0 2.55-2.55 2.55H19.6q-2.55 0-2.55-2.55V19.6q0-2.55 2.55-2.55h22.8q2.55 0 2.55 2.55v22.8z" id="a" />
		<path fill="#66F" d="M23.25 20.45L20.4 23.3l7.75 7.75-7.7 7.8 2.8 2.8L31 33.9l7.8 7.8 2.8-2.9-7.75-7.75 7.75-7.75-2.8-2.8-6.65 6.65-.05-.05-1.1 1.1-7.75-7.75z" id="b" />
	</defs>
	<use xlink:href="#a" />
	<use xlink:href="#b" />
</svg>
